<?xml version="1.0" standalone="no"?>
<!DOCTYPE svg PUBLIC "-//W3C//DTD SVG 20010904//EN"
 "http://www.w3.org/TR/2001/REC-SVG-20010904/DTD/svg10.dtd">
<svg version="1.0" xmlns="http://www.w3.org/2000/svg"
 width="108.000000pt" height="108.000000pt" viewBox="0 0 108.000000 108.000000"
 preserveAspectRatio="xMidYMid meet">

<g transform="translate(0.000000,108.000000) scale(0.100000,-0.100000)"
fill="#000000" stroke="none">
<path d="M440 1067 c-25 -7 -63 -24 -85 -38 -22 -14 -46 -24 -52 -22 -16 6
-78 -31 -120 -70 -31 -29 -32 -33 -26 -85 4 -37 3 -53 -4 -49 -17 11 -23 -33
-12 -85 12 -55 21 -63 49 -48 28 15 38 -12 16 -45 -13 -19 -14 -30 -6 -45 14
-26 56 -28 44 -2 -4 9 -7 31 -6 47 1 17 2 40 3 53 1 12 5 22 10 22 5 0 16 14
25 32 14 27 18 29 26 15 17 -31 24 -24 43 46 2 4 3 14 4 22 0 8 6 15 12 15 6
0 10 -10 9 -22 -4 -43 -1 -46 35 -43 27 3 35 0 35 -13 0 -11 11 -5 38 21 21
20 42 37 48 37 15 0 59 49 78 87 25 49 40 53 32 9 -6 -32 -31 -83 -76 -159
-11 -18 -10 -18 22 0 23 12 55 18 106 18 70 0 72 1 72 25 1 14 7 36 15 50 8
14 14 36 15 49 0 23 -1 24 -20 6 -20 -18 -20 -17 -20 11 -1 27 -1 28 -15 10
-18 -24 -87 -34 -79 -11 4 8 12 15 19 15 7 0 18 6 24 14 6 7 25 16 41 20 37 7
63 52 39 67 -66 43 -259 69 -339 46z m-40 -37 c0 -5 -5 -10 -11 -10 -5 0 -7 5
-4 10 3 6 8 10 11 10 2 0 4 -4 4 -10z m60 -14 c0 -15 -13 -35 -20 -31 -5 3
-16 -2 -24 -11 -15 -14 -16 -13 -16 9 0 13 3 27 7 30 7 8 53 10 53 3z m86 -52
c-4 -12 -2 -15 9 -10 29 11 15 -30 -31 -90 -66 -85 -67 -86 -61 -35 4 36 13
52 44 78 33 30 35 33 13 27 l-25 -6 24 26 c28 30 36 33 27 10z m-111 -64 c-4
-12 -9 -19 -12 -17 -3 3 -2 15 2 27 4 12 9 19 12 17 3 -3 2 -15 -2 -27z m-5
-61 c0 -12 4 -17 11 -13 7 4 9 -2 7 -16 -3 -23 -27 -33 -54 -23 -18 7 -18 23
2 51 19 28 34 28 34 1z m316 -56 c-1 -1 -14 1 -29 5 -26 7 -27 8 -11 31 l17
24 12 -29 c7 -16 11 -30 11 -31z m-569 0 c-3 -10 -5 -4 -5 12 0 17 2 24 5 18
2 -7 2 -21 0 -30z m503 17 c0 -5 -7 -7 -15 -4 -8 4 -15 8 -15 10 0 2 7 4 15 4
8 0 15 -4 15 -10z m-420 -9 c0 -13 -50 -44 -58 -36 -4 4 4 15 17 26 25 20 41
24 41 10z"/>
<path d="M799 913 c-1 -27 -4 -59 -8 -73 -9 -30 -2 -62 10 -54 14 8 10 -19 -6
-40 -8 -11 -15 -28 -15 -37 0 -27 21 -34 27 -10 3 12 11 21 18 21 22 0 57 67
50 92 -13 45 -60 148 -67 148 -5 0 -8 -21 -9 -47z m51 -91 c0 -5 -6 -17 -14
-27 -13 -18 -14 -18 -9 8 5 24 23 39 23 19z"/>
<path d="M871 924 c0 -11 3 -14 6 -6 3 7 2 16 -1 19 -3 4 -6 -2 -5 -13z"/>
<path d="M101 764 c0 -11 3 -14 6 -6 3 7 2 16 -1 19 -3 4 -6 -2 -5 -13z"/>
<path d="M901 754 c0 -11 3 -14 6 -6 3 7 2 16 -1 19 -3 4 -6 -2 -5 -13z"/>
<path d="M358 693 c7 -3 16 -2 19 1 4 3 -2 6 -13 5 -11 0 -14 -3 -6 -6z"/>
<path d="M663 693 c9 -2 23 -2 30 0 6 3 -1 5 -18 5 -16 0 -22 -2 -12 -5z"/>
<path d="M793 628 c-7 -8 -8 -19 -3 -28 8 -12 10 -12 15 2 10 26 2 43 -12 26z"/>
<path d="M270 488 c1 -22 34 -81 48 -86 8 -2 5 8 -8 30 -11 18 -20 41 -20 51
0 9 -4 17 -10 17 -5 0 -10 -6 -10 -12z"/>
</g>
</svg>
